<?xml version="1.0" encoding="UTF-8" standalone="no"?>
<!-- Created with Inkscape (http://www.inkscape.org/) -->

<svg
   xmlns:dc="http://purl.org/dc/elements/1.1/"
   xmlns:cc="http://creativecommons.org/ns#"
   xmlns:rdf="http://www.w3.org/1999/02/22-rdf-syntax-ns#"
   xmlns:svg="http://www.w3.org/2000/svg"
   xmlns="http://www.w3.org/2000/svg"
   xmlns:sodipodi="http://sodipodi.sourceforge.net/DTD/sodipodi-0.dtd"
   xmlns:inkscape="http://www.inkscape.org/namespaces/inkscape"
   version="1.1"
   id="svg2"
   xml:space="preserve"
   width="539.03931"
   height="469.04626"
   viewBox="0 0 539.0393 469.04626"
   sodipodi:docname="Volkis_Logo.svg"
   inkscape:version="0.92.4 (5da689c313, 2019-01-14)"><metadata
     id="metadata8"><rdf:RDF><cc:Work
         rdf:about=""><dc:format>image/svg+xml</dc:format><dc:type
           rdf:resource="http://purl.org/dc/dcmitype/StillImage" /><dc:title></dc:title></cc:Work></rdf:RDF></metadata><defs
     id="defs6"><clipPath
       clipPathUnits="userSpaceOnUse"
       id="clipPath38"><path
         d="M 0,841.89 H 595.276 V 0 H 0 Z"
         id="path36"
         inkscape:connector-curvature="0" /></clipPath><clipPath
       clipPathUnits="userSpaceOnUse"
       id="clipPath62"><path
         d="M 0,841.89 H 595.276 V 0 H 0 Z"
         id="path60"
         inkscape:connector-curvature="0" /></clipPath></defs><sodipodi:namedview
     pagecolor="#ffffff"
     bordercolor="#666666"
     borderopacity="1"
     objecttolerance="10"
     gridtolerance="10"
     guidetolerance="10"
     inkscape:pageopacity="0"
     inkscape:pageshadow="2"
     inkscape:window-width="794"
     inkscape:window-height="480"
     id="namedview4"
     showgrid="false"
     fit-margin-top="80"
     fit-margin-right="80"
     fit-margin-bottom="80"
     fit-margin-left="80"
     inkscape:zoom="0.21024124"
     inkscape:cx="-289.36191"
     inkscape:cy="199.48187"
     inkscape:window-x="1486"
     inkscape:window-y="281"
     inkscape:window-maximized="0"
     inkscape:current-layer="g10" /><g
     id="g10"
     inkscape:groupmode="layer"
     inkscape:label="Volkis_Logo"
     transform="matrix(1.3333333,0,0,-1.3333333,-127.33079,830.82438)"><g
       id="g12"
       transform="translate(261.0234,563.1183)"><path
         d="M 0,0 -28.693,-23.469 0,-52.692 Z"
         style="fill:#569cac;fill-opacity:1;fill-rule:nonzero;stroke:none"
         id="path14"
         inkscape:connector-curvature="0" /></g><g
       id="g16"
       transform="translate(334.0537,563.1183)"><path
         d="M 0,0 28.693,-23.469 0,-52.692 Z"
         style="fill:#569cac;fill-opacity:1;fill-rule:nonzero;stroke:none"
         id="path18"
         inkscape:connector-curvature="0" /></g><g
       id="g20"
       transform="translate(297.5947,420.004)"><path
         d="m 0,0 -65.265,66.471 v 53.174 L 0,53.174 Z"
         style="fill:#00243a;fill-opacity:1;fill-rule:nonzero;stroke:none"
         id="path22"
         inkscape:connector-curvature="0" /></g><g
       id="g24"
       transform="translate(297.5947,420.004)"><path
         d="m 0,0 65.152,66.471 v 53.174 L 0,53.174 Z"
         style="fill:#477e95;fill-opacity:1;fill-rule:nonzero;stroke:none"
         id="path26"
         inkscape:connector-curvature="0" /></g><g
       id="g28"
       transform="translate(197.8911,389.5167)"><path
         d="M 0,0 -18.431,-49.766 -36.704,0 h -5.689 l 21.156,-56.737 h 5.291 L 5.611,0 Z"
         style="fill:#00243a;fill-opacity:1;fill-rule:nonzero;stroke:none"
         id="path30"
         inkscape:connector-curvature="0" /></g><g
       id="g32"><g
         id="g34"
         clip-path="url(#clipPath38)"><g
           id="g40"
           transform="translate(207.3467,361.1486)"><path
             d="m 0,0 c 0,4.325 0.723,8.305 2.164,11.942 1.442,3.631 3.447,6.771 6.013,9.415 2.563,2.646 5.647,4.713 9.256,6.21 3.603,1.497 7.572,2.245 11.9,2.245 4.325,0 8.294,-0.748 11.9,-2.245 3.609,-1.497 6.693,-3.564 9.256,-6.21 2.566,-2.644 4.571,-5.784 6.013,-9.415 C 57.943,8.305 58.666,4.325 58.666,0 c 0,-4.328 -0.723,-8.323 -2.164,-11.98 -1.442,-3.662 -3.447,-6.814 -6.013,-9.457 -2.563,-2.647 -5.647,-4.705 -9.256,-6.172 -3.606,-1.468 -7.575,-2.206 -11.9,-2.206 -4.328,0 -8.297,0.738 -11.9,2.206 -3.609,1.467 -6.693,3.525 -9.256,6.172 -2.566,2.643 -4.571,5.795 -6.013,9.457 C 0.723,-8.323 0,-4.328 0,0 m 5.291,0 c 0,-3.527 0.56,-6.812 1.684,-9.858 1.121,-3.042 2.722,-5.69 4.805,-7.935 2.083,-2.245 4.61,-4.007 7.574,-5.29 2.968,-1.284 6.292,-1.921 9.979,-1.921 3.687,0 7.011,0.637 9.975,1.921 2.968,1.283 5.492,3.045 7.575,5.29 2.083,2.245 3.69,4.893 4.811,7.935 1.121,3.046 1.681,6.331 1.681,9.858 0,3.525 -0.56,6.813 -1.681,9.855 -1.121,3.046 -2.728,5.69 -4.811,7.934 -2.083,2.245 -4.607,4.011 -7.575,5.291 -2.964,1.283 -6.288,1.921 -9.975,1.921 -3.687,0 -7.011,-0.638 -9.979,-1.921 C 16.39,21.8 13.863,20.034 11.78,17.789 9.697,15.545 8.096,12.901 6.975,9.855 5.851,6.813 5.291,3.525 5.291,0"
             style="fill:#00243a;fill-opacity:1;fill-rule:nonzero;stroke:none"
             id="path42"
             inkscape:connector-curvature="0" /></g></g></g><g
       id="g44"
       transform="translate(274.0029,389.5177)"><path
         d="m 0,0 h 5.287 v -51.931 h 26.45 v -4.807 H 0 Z"
         style="fill:#00243a;fill-opacity:1;fill-rule:nonzero;stroke:none"
         id="path46"
         inkscape:connector-curvature="0" /></g><g
       id="g48"
       transform="translate(358.4443,332.7784)"><path
         d="M 0,0 -23.656,30.839 -1.604,56.738 H -8.896 L -30.963,30.775 -7.004,0 Z"
         style="fill:#00243a;fill-opacity:1;fill-rule:nonzero;stroke:none"
         id="path50"
         inkscape:connector-curvature="0" /></g><path
       d="m 322.566,389.516 h -5.287 v -56.737 h 5.287 z"
       style="fill:#00243a;fill-opacity:1;fill-rule:nonzero;stroke:none"
       id="path52"
       inkscape:connector-curvature="0" /><path
       d="m 368.898,389.516 h 5.287 v -56.737 h -5.287 z"
       style="fill:#00243a;fill-opacity:1;fill-rule:nonzero;stroke:none"
       id="path54"
       inkscape:connector-curvature="0" /><g
       id="g56"><g
         id="g58"
         clip-path="url(#clipPath62)"><g
           id="g64"
           transform="translate(388.3838,343.2765)"><path
             d="m 0,0 c 1.391,-2.404 3.191,-4.196 5.41,-5.369 2.216,-1.175 4.74,-1.766 7.572,-1.766 1.765,0 3.418,0.27 4.97,0.801 1.548,0.534 2.897,1.286 4.046,2.246 1.15,0.962 2.058,2.125 2.726,3.484 0.667,1.366 1.001,2.901 1.001,4.612 0,1.975 -0.415,3.605 -1.242,4.888 -0.829,1.283 -1.937,2.335 -3.327,3.165 -1.386,0.83 -2.952,1.536 -4.688,2.123 -1.737,0.588 -3.525,1.174 -5.368,1.761 -1.844,0.591 -3.636,1.258 -5.369,2.005 -1.736,0.749 -3.3,1.725 -4.691,2.927 -1.387,1.202 -2.498,2.712 -3.324,4.528 -0.828,1.816 -1.243,4.061 -1.243,6.73 0,2.511 0.495,4.743 1.483,6.694 0.988,1.946 2.326,3.578 4.007,4.888 1.683,1.308 3.619,2.297 5.809,2.968 2.194,0.664 4.487,1.001 6.894,1.001 3.099,0 5.972,-0.551 8.615,-1.646 2.644,-1.095 4.931,-2.922 6.852,-5.488 l -4.568,-3.288 c -1.335,1.872 -2.9,3.275 -4.688,4.208 -1.791,0.935 -3.914,1.403 -6.373,1.403 -1.71,0 -3.34,-0.228 -4.888,-0.681 C 8.067,41.74 6.72,41.073 5.569,40.192 4.419,39.308 3.499,38.199 2.807,36.864 2.109,35.53 1.763,33.953 1.763,32.135 c 0,-2.831 0.722,-5.005 2.165,-6.531 1.44,-1.52 3.245,-2.725 5.409,-3.606 2.164,-0.882 4.514,-1.655 7.054,-2.323 2.537,-0.667 4.885,-1.566 7.049,-2.687 2.164,-1.12 3.968,-2.681 5.411,-4.687 1.444,-2.002 2.164,-4.77 2.164,-8.293 0,-2.567 -0.48,-4.838 -1.446,-6.814 -0.959,-1.976 -2.254,-3.644 -3.883,-5.009 -1.63,-1.361 -3.516,-2.39 -5.651,-3.083 -2.138,-0.695 -4.357,-1.044 -6.652,-1.044 -3.74,0 -7.185,0.658 -10.338,1.963 -3.154,1.31 -5.851,3.515 -8.093,6.613 z"
             style="fill:#00243a;fill-opacity:1;fill-rule:nonzero;stroke:none"
             id="path66"
             inkscape:connector-curvature="0" /></g></g></g><g
       id="g68"
       transform="translate(438.3486,389.0548)"><path
         d="M 0,0 -2.223,-5.651 -4.462,0 h -1.482 v -7.099 h 0.931 v 6.22 h 0.034 l 2.446,-6.22 h 0.551 l 2.446,6.22 H 0.5 v -6.22 H 1.429 V 0 Z m -12.731,0 v -0.827 h 2.291 v -6.272 h 0.931 v 6.272 h 2.29 V 0 Z"
         style="fill:#00243a;fill-opacity:1;fill-rule:nonzero;stroke:none"
         id="path70"
         inkscape:connector-curvature="0" /></g></g></svg>